<svg width="17" height="17" viewBox="0 0 17 17" fill="none" xmlns="http://www.w3.org/2000/svg">
<path id="Sun" d="M14.4825 6V2.4825H10.965L8.4825 0L6 2.4825H2.4825V6L0 8.4825L2.4825 10.965V14.4825H6L8.4825 16.965L10.965 14.4825H14.4825V10.965L16.965 8.4825L14.4825 6ZM12.9825 10.3425V12.9825H10.3425L8.4825 14.8425L6.6225 12.9825H3.9825V10.3425L2.1225 8.4825L3.9825 6.6225V3.9825H6.6225L8.4825 2.1225L10.3425 3.9825H12.9825V6.6225L14.8425 8.4825L12.9825 10.3425ZM8.7 4.7325C8.145 4.7325 7.6125 4.86 7.14 5.0775C8.43 5.67 9.33 6.975 9.33 8.4825C9.33 9.99 8.43 11.295 7.14 11.8875C7.6125 12.105 8.145 12.2325 8.7 12.2325C10.77 12.2325 12.45 10.5525 12.45 8.4825C12.45 6.4125 10.77 4.7325 8.7 4.7325Z" fill="black"/>
</svg>
